<svg width="604" height="108" viewBox="0 0 604 108" fill="none" xmlns="http://www.w3.org/2000/svg">
<rect width="604" height="108" fill="#F7F7F7"/>
<path d="M186.764 39.122C187.439 40.2873 188.19 41.7133 189.018 43.4C189.846 45.0867 190.689 46.8653 191.548 48.736C192.407 50.576 193.25 52.462 194.078 54.394C194.937 56.2953 195.719 58.0587 196.424 59.684C197.129 58.0587 197.896 56.2953 198.724 54.394C199.552 52.462 200.395 50.576 201.254 48.736C202.113 46.8653 202.956 45.0867 203.784 43.4C204.612 41.7133 205.363 40.2873 206.038 39.122H211.282C211.558 41.4527 211.819 43.9367 212.064 46.574C212.309 49.1807 212.524 51.864 212.708 54.624C212.923 57.3533 213.107 60.1133 213.26 62.904C213.444 65.664 213.597 68.3627 213.72 71H208.016C207.893 67.2893 207.74 63.4713 207.556 59.546C207.403 55.6207 207.157 51.818 206.82 48.138C206.483 48.8433 206.084 49.6867 205.624 50.668C205.164 51.6493 204.673 52.7227 204.152 53.888C203.631 55.0227 203.094 56.2033 202.542 57.43C202.021 58.6567 201.499 59.8527 200.978 61.018C200.487 62.1527 200.027 63.226 199.598 64.238C199.169 65.2193 198.801 66.0627 198.494 66.768H194.17C193.863 66.0627 193.495 65.204 193.066 64.192C192.637 63.18 192.161 62.1067 191.64 60.972C191.149 59.8067 190.628 58.6107 190.076 57.384C189.555 56.1573 189.033 54.9767 188.512 53.842C187.991 52.7073 187.5 51.6493 187.04 50.668C186.58 49.656 186.181 48.8127 185.844 48.138C185.507 51.818 185.246 55.6207 185.062 59.546C184.909 63.4713 184.771 67.2893 184.648 71H178.944C179.067 68.3627 179.205 65.6333 179.358 62.812C179.542 59.9907 179.726 57.2 179.91 54.44C180.125 51.6493 180.355 48.9507 180.6 46.344C180.845 43.7373 181.106 41.33 181.382 39.122H186.764ZM225.21 55.038C225.21 56.786 225.425 58.3807 225.854 59.822C226.284 61.2327 226.897 62.444 227.694 63.456C228.522 64.4373 229.519 65.204 230.684 65.756C231.85 66.308 233.168 66.584 234.64 66.584C236.082 66.584 237.385 66.308 238.55 65.756C239.716 65.204 240.697 64.4373 241.494 63.456C242.322 62.444 242.951 61.2327 243.38 59.822C243.81 58.3807 244.024 56.786 244.024 55.038C244.024 53.29 243.81 51.7107 243.38 50.3C242.951 48.8587 242.322 47.6473 241.494 46.666C240.697 45.654 239.716 44.872 238.55 44.32C237.385 43.768 236.082 43.492 234.64 43.492C233.168 43.492 231.85 43.768 230.684 44.32C229.519 44.872 228.522 45.654 227.694 46.666C226.897 47.678 226.284 48.8893 225.854 50.3C225.425 51.7107 225.21 53.29 225.21 55.038ZM250.096 55.038C250.096 57.7673 249.682 60.1747 248.854 62.26C248.057 64.3453 246.953 66.0933 245.542 67.504C244.162 68.884 242.537 69.9267 240.666 70.632C238.796 71.3373 236.802 71.69 234.686 71.69C232.57 71.69 230.562 71.3373 228.66 70.632C226.79 69.9267 225.149 68.884 223.738 67.504C222.358 66.0933 221.254 64.3453 220.426 62.26C219.598 60.1747 219.184 57.7673 219.184 55.038C219.184 52.3087 219.598 49.9167 220.426 47.862C221.254 45.7767 222.374 44.0287 223.784 42.618C225.226 41.2073 226.882 40.1493 228.752 39.444C230.623 38.7387 232.601 38.386 234.686 38.386C236.772 38.386 238.75 38.7387 240.62 39.444C242.491 40.1493 244.116 41.2073 245.496 42.618C246.907 44.0287 248.026 45.7767 248.854 47.862C249.682 49.9167 250.096 52.3087 250.096 55.038ZM264.664 71C262.364 66.032 260.141 60.834 257.994 55.406C255.878 49.978 253.9 44.55 252.06 39.122H258.454C259.19 41.2687 259.942 43.4613 260.708 45.7C261.475 47.9387 262.242 50.1467 263.008 52.324C263.775 54.4707 264.542 56.556 265.308 58.58C266.075 60.604 266.826 62.4593 267.562 64.146C268.268 62.4593 269.004 60.6193 269.77 58.626C270.537 56.602 271.304 54.5013 272.07 52.324C272.868 50.1467 273.65 47.9387 274.416 45.7C275.183 43.4613 275.919 41.2687 276.624 39.122H282.834C280.964 44.55 278.97 49.978 276.854 55.406C274.738 60.834 272.53 66.032 270.23 71H264.664ZM286.957 39.122H292.753V71H286.957V39.122ZM300.388 71V39.122H320.858V44.044H306.184V51.91H319.248V56.74H306.184V66.078H321.962V71H300.388ZM327.341 71V39.122H347.489V44.044H333.137V52.186H345.879V57.108H333.137V71H327.341ZM372.825 65.986V71H352.677V39.122H358.473V65.986H372.825ZM377.25 39.122H383.046V71H377.25V39.122ZM409.587 71C408.698 69.1907 407.579 67.1973 406.229 65.02C404.88 62.8427 403.469 60.742 401.997 58.718C401.384 59.5153 400.709 60.466 399.973 61.57C399.268 62.674 398.547 63.8087 397.811 64.974C397.106 66.1087 396.447 67.2127 395.833 68.286C395.22 69.3593 394.729 70.264 394.361 71H387.783C389.163 68.3933 390.758 65.7253 392.567 62.996C394.377 60.236 396.339 57.3533 398.455 54.348L388.243 39.122H395.143L402.181 50.024L409.127 39.122H415.751L405.677 54.302C408.008 57.4607 410.063 60.4507 411.841 63.272C413.651 66.0933 415.169 68.6693 416.395 71H409.587Z" fill="black"/>
</svg>
